<svg xmlns="http://www.w3.org/2000/svg" xmlns:xlink="http://www.w3.org/1999/xlink" xmlns:lucid="lucid" width="1200"
     height="500">
    <g transform="translate(-220 -160)" lucid:page-tab-id="0_0">
        <path d="M0 0h1870.87v1322.83H0z" fill="#e5e5e5"/>
        <path d="M240 336c0-3.3 2.7-6 6-6h216c3.3 0 6 2.7 6 6v159c0 3.3-2.7 6-6 6H246c-3.3 0-6-2.7-6-6z"
              stroke="#5e5e5e" stroke-width="3" fill="#fff"/>
        <path d="M252 345c0-3.3 2.7-6 6-6h216c3.3 0 6 2.7 6 6v159c0 3.3-2.7 6-6 6H258c-3.3 0-6-2.7-6-6z"
              stroke="#5e5e5e" stroke-width="3" fill="#fff"/>
        <use xlink:href="#a" transform="matrix(1,0,0,1,262,330) translate(169.19753086419752 171.11111111111111)"/>
        <path d="M280 356c0-3.3 2.7-6 6-6h138c3.3 0 6 2.7 6 6v88c0 3.3-2.7 6-6 6H286c-3.3 0-6-2.7-6-6z" stroke="#5e5e5e"
              stroke-width="3" fill="#fff"/>
        <use xlink:href="#b" transform="matrix(1,0,0,1,285,355) translate(0 17.77777777777778)"/>
        <use xlink:href="#c" transform="matrix(1,0,0,1,285,355) translate(36.97530864197531 17.77777777777778)"/>
        <path d="M640 186c0-3.3 2.7-6 6-6h468c3.3 0 6 2.7 6 6v448c0 3.3-2.7 6-6 6H646c-3.3 0-6-2.7-6-6z"
              stroke="#5e5e5e" stroke-width="3" fill="#fff"/>
        <use xlink:href="#d" transform="matrix(1,0,0,1,660,180) translate(203.03703703703704 451.1111111111111)"/>
        <use xlink:href="#e" transform="matrix(1,0,0,1,660,180) translate(261.0617283950617 451.1111111111111)"/>
        <use xlink:href="#f" transform="matrix(1,0,0,1,660,180) translate(375.69135802469134 451.1111111111111)"/>
        <path d="M964 320c8.84 0 16 7.16 16 16v128c0 8.84-7.16 16-16 16H796c-8.84 0-16-7.16-16-16V336c0-8.84 7.16-16 16-16z"
              stroke="#5e5e5e" stroke-width="3" fill="#83bbe5"/>
        <use xlink:href="#g" transform="matrix(1,0,0,1,800,320) translate(20.24691358024691 71.11111111111111)"/>
        <use xlink:href="#h" transform="matrix(1,0,0,1,800,320) translate(79.44444444444444 71.11111111111111)"/>
        <use xlink:href="#i" transform="matrix(1,0,0,1,800,320) translate(7.839506172839506 97.77777777777777)"/>
        <use xlink:href="#j" transform="matrix(1,0,0,1,800,320) translate(73.14814814814814 97.77777777777777)"/>
        <path d="M496.8 401h-64.3v-2h64.3zm263.2 0H566.67v-2H760z" fill="#5e5e5e"/>
        <path d="M432.53 401h-1.03v-2h1.03zM775.26 400L761 404.64v-9.28z" fill="#5e5e5e"/>
        <path d="M778.5 400l-18.5 6v-12zm-16.5 3.26l10.03-3.26-10.03-3.26z" fill="#5e5e5e"/>
        <use xlink:href="#k"
             transform="matrix(1,0,0,1,496.79735005791446,389.3333333333333) translate(0 14.222222222222223)"/>
        <g stroke="#5e5e5e" stroke-width="3">
            <path d="M1260 236c0-8.84 26.86-16 60-16s60 7.16 60 16v128c0 8.84-26.86 16-60 16s-60-7.16-60-16z"
                  fill="#fff"/>
            <path d="M1380 236c0 8.84-26.86 16-60 16s-60-7.16-60-16" fill="none"/>
        </g>
        <use xlink:href="#d"
             transform="matrix(6.123233995736766e-17,-1,1,6.123233995736766e-17,1265,375) translate(14.586419753086417 59.02777777777778)"/>
        <use xlink:href="#l"
             transform="matrix(6.123233995736766e-17,-1,1,6.123233995736766e-17,1265,375) translate(72.61111111111111 59.02777777777778)"/>
        <g stroke="#5e5e5e" stroke-width="3">
            <path d="M1260 436c0-8.84 26.86-16 60-16s60 7.16 60 16v128c0 8.84-26.86 16-60 16s-60-7.16-60-16z"
                  fill="#fff"/>
            <path d="M1380 436c0 8.84-26.86 16-60 16s-60-7.16-60-16" fill="none"/>
        </g>
        <use xlink:href="#m"
             transform="matrix(6.123233995736766e-17,-1,1,6.123233995736766e-17,1265,575) translate(21.376543209876544 59.02777777777778)"/>
        <use xlink:href="#l"
             transform="matrix(6.123233995736766e-17,-1,1,6.123233995736766e-17,1265,575) translate(65.82098765432099 59.02777777777778)"/>
        <path d="M1004.76 401H982.5v-2h22.26zM1240 301h-43.87l-2.64.7-1.8 1.8-.7 2.63v88l-.92 3.42-2.53 2.53-3.42.92H1053v-2h130.87l2.64-.7 1.8-1.8.7-2.63v-88l.92-3.42 2.53-2.53 3.42-.92H1240z"
              fill="#5e5e5e"/>
        <path d="M982.53 401h-1.03v-2h1.03zM1255.26 300l-14.26 4.64v-9.28z" fill="#5e5e5e"/>
        <path d="M1258.5 300l-18.5 6v-12zm-16.5 3.26l10.03-3.26-10.03-3.26zM1187.55 399.92l2.53 2.53.92 3.42v88l.7 2.64 1.8 1.8 2.63.7H1240v2h-44.13l-3.42-.92-2.53-2.53-.92-3.42v-88l-.7-2.64-1.8-1.8-2.63-.7H1053v-2h131.13zM982.5 401v-2h22.26v2z"
              fill="#5e5e5e"/>
        <path d="M982.53 401h-1.03v-2h1.03zM1255.26 500l-14.26 4.64v-9.28z" fill="#5e5e5e"/>
        <path d="M1258.5 500l-18.5 6v-12zm-16.5 3.26l10.03-3.26-10.03-3.26z" fill="#5e5e5e"/>
        <g>
            <use xlink:href="#n"
                 transform="matrix(1,0,0,1,1004.7559013426263,389.3333333333333) translate(0 14.222222222222223)"/>
        </g>
        <g stroke="#5e5e5e" stroke-width="3">
            <path d="M1280 456c0-8.84 26.86-16 60-16s60 7.16 60 16v128c0 8.84-26.86 16-60 16s-60-7.16-60-16z"
                  fill="#fff"/>
            <path d="M1400 456c0 8.84-26.86 16-60 16s-60-7.16-60-16" fill="none"/>
        </g>
        <g>
            <use xlink:href="#m"
                 transform="matrix(6.123233995736766e-17,-1,1,6.123233995736766e-17,1285,595) translate(8.47530864197531 59.02777777777778)"/>
            <use xlink:href="#o"
                 transform="matrix(6.123233995736766e-17,-1,1,6.123233995736766e-17,1285,595) translate(52.91975308641976 59.02777777777778)"/>
        </g>
        <path d="M285 406c0-3.3 2.7-6 6-6h128c3.3 0 6 2.7 6 6v28c0 3.3-2.7 6-6 6H291c-3.3 0-6-2.7-6-6z" stroke="#5e5e5e"
              stroke-width="3" fill="#83bbe5"/>
        <g>
            <use xlink:href="#p" transform="matrix(1,0,0,1,290,405) translate(-2.2561728395061493 18.11111111111111)"/>
        </g>
        <defs>
            <path fill="#333"
                  d="M30-248c87 1 191-15 191 75 0 78-77 80-158 76V0H30v-248zm33 125c57 0 124 11 124-50 0-59-68-47-124-48v98"
                  id="q"/>
            <path fill="#333"
                  d="M212-179c-10-28-35-45-73-45-59 0-87 40-87 99 0 60 29 101 89 101 43 0 62-24 78-52l27 14C228-24 195 4 139 4 59 4 22-46 18-125c-6-104 99-153 187-111 19 9 31 26 39 46"
                  id="r"/>
            <g id="a">
                <use transform="matrix(0.06172839506172839,0,0,0.06172839506172839,0,0)" xlink:href="#q"/>
                <use transform="matrix(0.06172839506172839,0,0,0.06172839506172839,14.814814814814813,0)"
                     xlink:href="#r"/>
            </g>
            <path fill="#333"
                  d="M30-248c118-7 216 8 213 122C240-48 200 0 122 0H30v-248zM63-27c89 8 146-16 146-99s-60-101-146-95v194"
                  id="s"/>
            <path fill="#333"
                  d="M160-131c35 5 61 23 61 61C221 17 115-2 30 0v-248c76 3 177-17 177 60 0 33-19 50-47 57zm-97-11c50-1 110 9 110-42 0-47-63-36-110-37v79zm0 115c55-2 124 14 124-45 0-56-70-42-124-44v89"
                  id="t"/>
            <g id="b">
                <use transform="matrix(0.06172839506172839,0,0,0.06172839506172839,0,0)" xlink:href="#s"/>
                <use transform="matrix(0.06172839506172839,0,0,0.06172839506172839,15.987654320987653,0)"
                     xlink:href="#t"/>
            </g>
            <path fill="#333" d="M59-47c-2 24 18 29 38 22v24C64 9 27 4 27-40v-127H5v-23h24l9-43h21v43h35v23H59v120"
                  id="u"/>
            <path fill="#333"
                  d="M100-194c62-1 85 37 85 99 1 63-27 99-86 99S16-35 15-95c0-66 28-99 85-99zM99-20c44 1 53-31 53-75 0-43-8-75-51-75s-53 32-53 75 10 74 51 75"
                  id="v"/>
            <path fill="#333" d="M24 0v-261h32V0H24" id="w"/>
            <g id="c">
                <use transform="matrix(0.06172839506172839,0,0,0.06172839506172839,0,0)" xlink:href="#u"/>
                <use transform="matrix(0.06172839506172839,0,0,0.06172839506172839,6.172839506172839,0)"
                     xlink:href="#v"/>
                <use transform="matrix(0.06172839506172839,0,0,0.06172839506172839,18.51851851851852,0)"
                     xlink:href="#v"/>
                <use transform="matrix(0.06172839506172839,0,0,0.06172839506172839,30.864197530864196,0)"
                     xlink:href="#w"/>
            </g>
            <path fill="#333"
                  d="M100-194c63 0 86 42 84 106H49c0 40 14 67 53 68 26 1 43-12 49-29l28 8c-11 28-37 45-77 45C44 4 14-33 15-96c1-61 26-98 85-98zm52 81c6-60-76-77-97-28-3 7-6 17-6 28h103"
                  id="x"/>
            <path fill="#333"
                  d="M177-190C167-65 218 103 67 71c-23-6-38-20-44-43l32-5c15 47 100 32 89-28v-30C133-14 115 1 83 1 29 1 15-40 15-95c0-56 16-97 71-98 29-1 48 16 59 35 1-10 0-23 2-32h30zM94-22c36 0 50-32 50-73 0-42-14-75-50-75-39 0-46 34-46 75s6 73 46 73"
                  id="y"/>
            <path fill="#333"
                  d="M141-36C126-15 110 5 73 4 37 3 15-17 15-53c-1-64 63-63 125-63 3-35-9-54-41-54-24 1-41 7-42 31l-33-3c5-37 33-52 76-52 45 0 72 20 72 64v82c-1 20 7 32 28 27v20c-31 9-61-2-59-35zM48-53c0 20 12 33 32 33 41-3 63-29 60-74-43 2-92-5-92 41"
                  id="z"/>
            <g id="d">
                <use transform="matrix(0.06172839506172839,0,0,0.06172839506172839,0,0)" xlink:href="#q"/>
                <use transform="matrix(0.06172839506172839,0,0,0.06172839506172839,14.814814814814813,0)"
                     xlink:href="#x"/>
                <use transform="matrix(0.06172839506172839,0,0,0.06172839506172839,27.160493827160494,0)"
                     xlink:href="#y"/>
                <use transform="matrix(0.06172839506172839,0,0,0.06172839506172839,39.50617283950617,0)"
                     xlink:href="#z"/>
            </g>
            <path fill="#333" d="M205 0l-28-72H64L36 0H1l101-248h38L239 0h-34zm-38-99l-47-123c-12 45-31 82-46 123h93"
                  id="A"/>
            <path fill="#333"
                  d="M115-194c55 1 70 41 70 98S169 2 115 4C84 4 66-9 55-30l1 105H24l-1-265h31l2 30c10-21 28-34 59-34zm-8 174c40 0 45-34 45-75s-6-73-45-74c-42 0-51 32-51 76 0 43 10 73 51 73"
                  id="B"/>
            <path fill="#333" d="M24-231v-30h32v30H24zM24 0v-190h32V0H24" id="C"/>
            <path fill="#333"
                  d="M96-169c-40 0-48 33-48 73s9 75 48 75c24 0 41-14 43-38l32 2c-6 37-31 61-74 61-59 0-76-41-82-99-10-93 101-131 147-64 4 7 5 14 7 22l-32 3c-4-21-16-35-41-35"
                  id="D"/>
            <path fill="#333"
                  d="M117-194c89-4 53 116 60 194h-32v-121c0-31-8-49-39-48C34-167 62-67 57 0H25l-1-190h30c1 10-1 24 2 32 11-22 29-35 61-36"
                  id="E"/>
            <g id="e">
                <use transform="matrix(0.06172839506172839,0,0,0.06172839506172839,0,0)" xlink:href="#A"/>
                <use transform="matrix(0.06172839506172839,0,0,0.06172839506172839,14.814814814814813,0)"
                     xlink:href="#B"/>
                <use transform="matrix(0.06172839506172839,0,0,0.06172839506172839,27.160493827160494,0)"
                     xlink:href="#B"/>
                <use transform="matrix(0.06172839506172839,0,0,0.06172839506172839,39.50617283950617,0)"
                     xlink:href="#w"/>
                <use transform="matrix(0.06172839506172839,0,0,0.06172839506172839,44.382716049382715,0)"
                     xlink:href="#C"/>
                <use transform="matrix(0.06172839506172839,0,0,0.06172839506172839,49.25925925925926,0)"
                     xlink:href="#D"/>
                <use transform="matrix(0.06172839506172839,0,0,0.06172839506172839,60.37037037037037,0)"
                     xlink:href="#z"/>
                <use transform="matrix(0.06172839506172839,0,0,0.06172839506172839,72.71604938271605,0)"
                     xlink:href="#u"/>
                <use transform="matrix(0.06172839506172839,0,0,0.06172839506172839,78.88888888888889,0)"
                     xlink:href="#C"/>
                <use transform="matrix(0.06172839506172839,0,0,0.06172839506172839,83.76543209876543,0)"
                     xlink:href="#v"/>
                <use transform="matrix(0.06172839506172839,0,0,0.06172839506172839,96.11111111111111,0)"
                     xlink:href="#E"/>
            </g>
            <path fill="#333"
                  d="M185-189c-5-48-123-54-124 2 14 75 158 14 163 119 3 78-121 87-175 55-17-10-28-26-33-46l33-7c5 56 141 63 141-1 0-78-155-14-162-118-5-82 145-84 179-34 5 7 8 16 11 25"
                  id="F"/>
            <path fill="#333" d="M114-163C36-179 61-72 57 0H25l-1-190h30c1 12-1 29 2 39 6-27 23-49 58-41v29" id="G"/>
            <path fill="#333" d="M108 0H70L1-190h34L89-25l56-165h34" id="H"/>
            <g id="f">
                <use transform="matrix(0.06172839506172839,0,0,0.06172839506172839,0,0)" xlink:href="#F"/>
                <use transform="matrix(0.06172839506172839,0,0,0.06172839506172839,14.814814814814813,0)"
                     xlink:href="#x"/>
                <use transform="matrix(0.06172839506172839,0,0,0.06172839506172839,27.160493827160494,0)"
                     xlink:href="#G"/>
                <use transform="matrix(0.06172839506172839,0,0,0.06172839506172839,34.50617283950617,0)"
                     xlink:href="#H"/>
                <use transform="matrix(0.06172839506172839,0,0,0.06172839506172839,45.61728395061728,0)"
                     xlink:href="#x"/>
                <use transform="matrix(0.06172839506172839,0,0,0.06172839506172839,57.962962962962955,0)"
                     xlink:href="#G"/>
            </g>
            <path fill="#fff"
                  d="M24-248c93 1 206-16 204 79-1 75-69 88-152 82V0H24v-248zm52 121c47 0 100 7 100-41 0-47-54-39-100-39v80"
                  id="I"/>
            <path fill="#fff"
                  d="M185-48c-13 30-37 53-82 52C43 2 14-33 14-96s30-98 90-98c62 0 83 45 84 108H66c0 31 8 55 39 56 18 0 30-7 34-22zm-45-69c5-46-57-63-70-21-2 6-4 13-4 21h74"
                  id="J"/>
            <path fill="#fff"
                  d="M195-6C206 82 75 100 31 46c-4-6-6-13-8-21l49-6c3 16 16 24 34 25 40 0 42-37 40-79-11 22-30 35-61 35-53 0-70-43-70-97 0-56 18-96 73-97 30 0 46 14 59 34l2-30h47zm-90-29c32 0 41-27 41-63 0-35-9-62-40-62-32 0-39 29-40 63 0 36 9 62 39 62"
                  id="K"/>
            <path fill="#fff"
                  d="M133-34C117-15 103 5 69 4 32 3 11-16 11-54c-1-60 55-63 116-61 1-26-3-47-28-47-18 1-26 9-28 27l-52-2c7-38 36-58 82-57s74 22 75 68l1 82c-1 14 12 18 25 15v27c-30 8-71 5-69-32zm-48 3c29 0 43-24 42-57-32 0-66-3-65 30 0 17 8 27 23 27"
                  id="L"/>
            <g id="g">
                <use transform="matrix(0.06172839506172839,0,0,0.06172839506172839,0,0)" xlink:href="#I"/>
                <use transform="matrix(0.06172839506172839,0,0,0.06172839506172839,14.814814814814813,0)"
                     xlink:href="#J"/>
                <use transform="matrix(0.06172839506172839,0,0,0.06172839506172839,27.160493827160494,0)"
                     xlink:href="#K"/>
                <use transform="matrix(0.06172839506172839,0,0,0.06172839506172839,40.67901234567901,0)"
                     xlink:href="#L"/>
            </g>
            <path fill="#fff"
                  d="M176-78C186 10 51 31 16-35c-5-9-9-19-11-32l52-8c4 21 12 37 35 38 23 0 32-16 32-40v-130H75v-41h101v170"
                  id="M"/>
            <path fill="#fff"
                  d="M24-248c120-7 223 5 221 122C244-46 201 0 124 0H24v-248zM76-40c74 7 117-18 117-86 0-67-45-88-117-82v168"
                  id="N"/>
            <path fill="#fff"
                  d="M182-130c37 4 62 22 62 59C244 23 116-4 24 0v-248c84 5 203-23 205 63 0 31-19 50-47 55zM76-148c40-3 101 13 101-30 0-44-60-28-101-31v61zm0 110c48-3 116 14 116-37 0-48-69-32-116-35v72"
                  id="O"/>
            <path fill="#fff"
                  d="M67-125c0 53 21 87 73 88 37 1 54-22 65-47l45 17C233-25 199 4 140 4 58 4 20-42 15-125 8-235 124-281 211-232c18 10 29 29 36 50l-46 12c-8-25-30-41-62-41-52 0-71 34-72 86"
                  id="P"/>
            <g id="h">
                <use transform="matrix(0.06172839506172839,0,0,0.06172839506172839,0,0)" xlink:href="#M"/>
                <use transform="matrix(0.06172839506172839,0,0,0.06172839506172839,12.345679012345679,0)"
                     xlink:href="#N"/>
                <use transform="matrix(0.06172839506172839,0,0,0.06172839506172839,28.333333333333332,0)"
                     xlink:href="#O"/>
                <use transform="matrix(0.06172839506172839,0,0,0.06172839506172839,44.32098765432099,0)"
                     xlink:href="#P"/>
            </g>
            <path fill="#fff"
                  d="M240-174c0 40-23 61-54 70L253 0h-59l-57-94H76V0H24v-248c93 4 217-23 216 74zM76-134c48-2 112 12 112-38 0-48-66-32-112-35v73"
                  id="Q"/>
            <path fill="#fff" d="M24 0v-248h195v40H76v63h132v40H76v65h150V0H24" id="R"/>
            <path fill="#fff"
                  d="M169-182c-1-43-94-46-97-3 18 66 151 10 154 114 3 95-165 93-204 36-6-8-10-19-12-30l50-8c3 46 112 56 116 5-17-69-150-10-154-114-4-87 153-88 188-35 5 8 8 18 10 28"
                  id="S"/>
            <path fill="#fff" d="M136-208V0H84v-208H4v-40h212v40h-80" id="T"/>
            <g id="i">
                <use transform="matrix(0.06172839506172839,0,0,0.06172839506172839,0,0)" xlink:href="#Q"/>
                <use transform="matrix(0.06172839506172839,0,0,0.06172839506172839,15.987654320987653,0)"
                     xlink:href="#R"/>
                <use transform="matrix(0.06172839506172839,0,0,0.06172839506172839,30.80246913580247,0)"
                     xlink:href="#S"/>
                <use transform="matrix(0.06172839506172839,0,0,0.06172839506172839,45.61728395061728,0)"
                     xlink:href="#T"/>
            </g>
            <path fill="#fff" d="M135-150c-39-12-60 13-60 57V0H25l-1-190h47c2 13-1 29 3 40 6-28 27-53 61-41v41" id="U"/>
            <path fill="#fff" d="M128 0H69L1-190h53L99-40l48-150h52" id="V"/>
            <path fill="#fff" d="M25-224v-37h50v37H25zM25 0v-190h50V0H25" id="W"/>
            <path fill="#fff"
                  d="M190-63c-7 42-38 67-86 67-59 0-84-38-90-98-12-110 154-137 174-36l-49 2c-2-19-15-32-35-32-30 0-35 28-38 64-6 74 65 87 74 30"
                  id="X"/>
            <g id="j">
                <use transform="matrix(0.06172839506172839,0,0,0.06172839506172839,0,0)" xlink:href="#S"/>
                <use transform="matrix(0.06172839506172839,0,0,0.06172839506172839,14.814814814814813,0)"
                     xlink:href="#J"/>
                <use transform="matrix(0.06172839506172839,0,0,0.06172839506172839,27.160493827160494,0)"
                     xlink:href="#U"/>
                <use transform="matrix(0.06172839506172839,0,0,0.06172839506172839,35.80246913580247,0)"
                     xlink:href="#V"/>
                <use transform="matrix(0.06172839506172839,0,0,0.06172839506172839,48.148148148148145,0)"
                     xlink:href="#W"/>
                <use transform="matrix(0.06172839506172839,0,0,0.06172839506172839,54.32098765432099,0)"
                     xlink:href="#X"/>
                <use transform="matrix(0.06172839506172839,0,0,0.06172839506172839,66.66666666666667,0)"
                     xlink:href="#J"/>
            </g>
            <path fill="#333" d="M186 0v-106H76V0H24v-248h52v99h110v-99h50V0h-50" id="Y"/>
            <path fill="#333" d="M136-208V0H84v-208H4v-40h212v40h-80" id="Z"/>
            <path fill="#333"
                  d="M24-248c93 1 206-16 204 79-1 75-69 88-152 82V0H24v-248zm52 121c47 0 100 7 100-41 0-47-54-39-100-39v80"
                  id="aa"/>
            <path fill="#333" d="M67-93c0 74 22 123 53 168H70C40 30 18-18 18-93s22-123 52-168h50c-32 44-53 94-53 168"
                  id="ab"/>
            <path fill="#333"
                  d="M169-182c-1-43-94-46-97-3 18 66 151 10 154 114 3 95-165 93-204 36-6-8-10-19-12-30l50-8c3 46 112 56 116 5-17-69-150-10-154-114-4-87 153-88 188-35 5 8 8 18 10 28"
                  id="ac"/>
            <path fill="#333"
                  d="M102-93c0 74-22 123-52 168H0C30 29 54-18 53-93c0-74-22-123-53-168h50c30 45 52 94 52 168" id="ad"/>
            <g id="k">
                <use transform="matrix(0.04938271604938272,0,0,0.04938271604938272,0,0)" xlink:href="#Y"/>
                <use transform="matrix(0.04938271604938272,0,0,0.04938271604938272,12.790123456790125,0)"
                     xlink:href="#Z"/>
                <use transform="matrix(0.04938271604938272,0,0,0.04938271604938272,23.60493827160494,0)"
                     xlink:href="#Z"/>
                <use transform="matrix(0.04938271604938272,0,0,0.04938271604938272,34.41975308641975,0)"
                     xlink:href="#aa"/>
                <use transform="matrix(0.04938271604938272,0,0,0.04938271604938272,46.27160493827161,0)"
                     xlink:href="#ab"/>
                <use transform="matrix(0.04938271604938272,0,0,0.04938271604938272,52.14814814814815,0)"
                     xlink:href="#ac"/>
                <use transform="matrix(0.04938271604938272,0,0,0.04938271604938272,64,0)" xlink:href="#ad"/>
            </g>
            <g id="l">
                <use transform="matrix(0.06172839506172839,0,0,0.06172839506172839,0,0)" xlink:href="#s"/>
                <use transform="matrix(0.06172839506172839,0,0,0.06172839506172839,15.987654320987653,0)"
                     xlink:href="#t"/>
            </g>
            <path fill="#333" d="M30 0v-248h187v28H63v79h144v27H63v87h162V0H30" id="ae"/>
            <path fill="#333" d="M141 0L90-78 38 0H4l68-98-65-92h35l48 74 47-74h35l-64 92 68 98h-35" id="af"/>
            <path fill="#333" d="M33 0v-38h34V0H33" id="ag"/>
            <g id="m">
                <use transform="matrix(0.06172839506172839,0,0,0.06172839506172839,0,0)" xlink:href="#ae"/>
                <use transform="matrix(0.06172839506172839,0,0,0.06172839506172839,14.814814814814813,0)"
                     xlink:href="#af"/>
                <use transform="matrix(0.06172839506172839,0,0,0.06172839506172839,25.925925925925924,0)"
                     xlink:href="#u"/>
                <use transform="matrix(0.06172839506172839,0,0,0.06172839506172839,32.098765432098766,0)"
                     xlink:href="#ag"/>
            </g>
            <path fill="#333"
                  d="M176-78C186 10 51 31 16-35c-5-9-9-19-11-32l52-8c4 21 12 37 35 38 23 0 32-16 32-40v-130H75v-41h101v170"
                  id="ah"/>
            <path fill="#333"
                  d="M24-248c120-7 223 5 221 122C244-46 201 0 124 0H24v-248zM76-40c74 7 117-18 117-86 0-67-45-88-117-82v168"
                  id="ai"/>
            <path fill="#333"
                  d="M182-130c37 4 62 22 62 59C244 23 116-4 24 0v-248c84 5 203-23 205 63 0 31-19 50-47 55zM76-148c40-3 101 13 101-30 0-44-60-28-101-31v61zm0 110c48-3 116 14 116-37 0-48-69-32-116-35v72"
                  id="aj"/>
            <path fill="#333"
                  d="M67-125c0 53 21 87 73 88 37 1 54-22 65-47l45 17C233-25 199 4 140 4 58 4 20-42 15-125 8-235 124-281 211-232c18 10 29 29 36 50l-46 12c-8-25-30-41-62-41-52 0-71 34-72 86"
                  id="ak"/>
            <g id="n">
                <use transform="matrix(0.04938271604938272,0,0,0.04938271604938272,0,0)" xlink:href="#ah"/>
                <use transform="matrix(0.04938271604938272,0,0,0.04938271604938272,9.876543209876544,0)"
                     xlink:href="#ai"/>
                <use transform="matrix(0.04938271604938272,0,0,0.04938271604938272,22.66666666666667,0)"
                     xlink:href="#aj"/>
                <use transform="matrix(0.04938271604938272,0,0,0.04938271604938272,35.4567901234568,0)"
                     xlink:href="#ak"/>
            </g>
            <path fill="#333" d="M87 75C49 33 22-17 22-94c0-76 28-126 65-167h31c-38 41-64 92-64 168S80 34 118 75H87"
                  id="al"/>
            <path fill="#333"
                  d="M135-143c-3-34-86-38-87 0 15 53 115 12 119 90S17 21 10-45l28-5c4 36 97 45 98 0-10-56-113-15-118-90-4-57 82-63 122-42 12 7 21 19 24 35"
                  id="am"/>
            <path fill="#333" d="M33-261c38 41 65 92 65 168S71 34 33 75H2C39 34 66-17 66-93S39-220 2-261h31" id="an"/>
            <g id="o">
                <use transform="matrix(0.06172839506172839,0,0,0.06172839506172839,0,0)" xlink:href="#s"/>
                <use transform="matrix(0.06172839506172839,0,0,0.06172839506172839,15.987654320987653,0)"
                     xlink:href="#t"/>
                <use transform="matrix(0.06172839506172839,0,0,0.06172839506172839,30.80246913580247,0)"
                     xlink:href="#al"/>
                <use transform="matrix(0.06172839506172839,0,0,0.06172839506172839,38.148148148148145,0)"
                     xlink:href="#am"/>
                <use transform="matrix(0.06172839506172839,0,0,0.06172839506172839,49.25925925925925,0)"
                     xlink:href="#an"/>
            </g>
            <path fill="#fff" d="M14-72v-43h91v43H14" id="ao"/>
            <g id="p">
                <use transform="matrix(0.04320987654320985,0,0,0.04320987654320985,0,0)" xlink:href="#I"/>
                <use transform="matrix(0.04320987654320985,0,0,0.04320987654320985,10.370370370370365,0)"
                     xlink:href="#J"/>
                <use transform="matrix(0.04320987654320985,0,0,0.04320987654320985,19.012345679012334,0)"
                     xlink:href="#K"/>
                <use transform="matrix(0.04320987654320985,0,0,0.04320987654320985,28.475308641975293,0)"
                     xlink:href="#L"/>
                <use transform="matrix(0.04320987654320985,0,0,0.04320987654320985,37.117283950617264,0)"
                     xlink:href="#ao"/>
                <use transform="matrix(0.04320987654320985,0,0,0.04320987654320985,42.25925925925924,0)"
                     xlink:href="#M"/>
                <use transform="matrix(0.04320987654320985,0,0,0.04320987654320985,50.90123456790122,0)"
                     xlink:href="#N"/>
                <use transform="matrix(0.04320987654320985,0,0,0.04320987654320985,62.09259259259257,0)"
                     xlink:href="#O"/>
                <use transform="matrix(0.04320987654320985,0,0,0.04320987654320985,73.28395061728392,0)"
                     xlink:href="#P"/>
                <use transform="matrix(0.04320987654320985,0,0,0.04320987654320985,84.47530864197527,0)"
                     xlink:href="#ao"/>
                <use transform="matrix(0.04320987654320985,0,0,0.04320987654320985,89.61728395061725,0)"
                     xlink:href="#N"/>
                <use transform="matrix(0.04320987654320985,0,0,0.04320987654320985,100.8086419753086,0)"
                     xlink:href="#U"/>
                <use transform="matrix(0.04320987654320985,0,0,0.04320987654320985,106.85802469135798,0)"
                     xlink:href="#W"/>
                <use transform="matrix(0.04320987654320985,0,0,0.04320987654320985,111.17901234567897,0)"
                     xlink:href="#V"/>
                <use transform="matrix(0.04320987654320985,0,0,0.04320987654320985,119.82098765432094,0)"
                     xlink:href="#J"/>
                <use transform="matrix(0.04320987654320985,0,0,0.04320987654320985,128.4629629629629,0)"
                     xlink:href="#U"/>
            </g>
        </defs>
    </g>
</svg>